<?xml version="1.0" encoding="utf-8"?>
<!-- Svg Vector Icons : http://www.onlinewebfonts.com/icon -->
<!DOCTYPE svg PUBLIC "-//W3C//DTD SVG 1.1//EN" "http://www.w3.org/Graphics/SVG/1.1/DTD/svg11.dtd">
<svg version="1.1" xmlns="http://www.w3.org/2000/svg" xmlns:xlink="http://www.w3.org/1999/xlink" x="0px" y="0px" viewBox="0 0 256 256" enable-background="new 0 0 256 256" xml:space="preserve">
<metadata> Svg Vector Icons : http://www.onlinewebfonts.com/icon </metadata>
<g><g><g><path stroke-width="4" fill-opacity="0" stroke="#000000"  d="M38.1,11.4c-0.9,0.5-7.3,6.6-14.4,13.7C10.1,38.8,9.5,39.6,10.2,43.4c0.4,1.9,2.1,4.1,4,5.1c1.7,0.9,4.7,0.9,6.3,0c0.7-0.4,4-3.4,7.2-6.7l6-6l0.2,90.5c0.2,90,0.2,90.5,1.2,92.1c0.6,0.9,1.7,2,2.5,2.5c1.6,0.9,2.1,0.9,91.2,1.2l89.6,0.2l-6.7,5.7c-8.3,7-9.3,8.9-7.3,13.3c1.6,3.5,5.8,5.2,9.1,3.8c1.7-0.7,30.2-24.8,31.3-26.5c0.4-0.6,0.8-1.9,1-3c0.5-3.6-0.2-4.5-15.5-17.8c-7.7-6.8-14.9-12.7-15.9-13.2c-4.5-2.2-10,1.4-10,6.7c0,3.4,1.2,4.8,13,14.8l1.5,1.3h-15.5H188v-47.2V113l18.9-15.7c12.3-10.2,19.1-16.2,19.6-17.1c0.9-1.8,0.9-4.9,0-6.5c-1.8-3.5-6.1-5.1-9.3-3.4c-1.2,0.6-62.8,51.3-74.1,60.9c-0.8,0.7-1.7-0.1-18-16.6c-18.5-18.8-18.6-18.9-22.7-18.2c-1.6,0.3-3.8,2.4-21.7,20.5c-11,11.1-20.4,20.9-20.9,21.9c-0.8,1.7-0.9,2.9-0.9,35.2v33.4h-5.1h-5.1v-85.8V35.6l6.4,6.3c6.5,6.4,7.7,7.3,10.5,7.3c3.5,0,6.2-2.1,7.1-5.6c1-3.7,0.7-4.1-13.9-18.7c-7.4-7.4-14.1-13.7-14.8-14C42,10.2,40,10.4,38.1,11.4z M96.7,164.4v42.9H85.1H73.6v-31.2V145L85,133.3c6.3-6.4,11.4-11.7,11.5-11.7C96.6,121.5,96.7,140.8,96.7,164.4z M134.5,176.1v31.2h-11.5h-11.5v-42.8l0-42.7l11.5,11.6l11.5,11.6V176.1z M173.7,166.3v41h-12.2h-12.2v-31v-31.1l12-10c6.6-5.5,12.1-10,12.2-10C173.6,125.2,173.7,143.7,173.7,166.3z"/></g></g></g>
</svg>